<svg width="551" height="82" viewBox="0 0 551 82" fill="none" xmlns="http://www.w3.org/2000/svg">
<path d="M8 0.5H543C547.142 0.5 550.5 3.85786 550.5 8V74C550.5 78.1421 547.142 81.5 543 81.5H7.99999C3.85785 81.5 0.5 78.1421 0.5 74V8C0.5 3.85787 3.85786 0.5 8 0.5Z" fill="black" stroke="white"/>
<path d="M262.5 35.5114L264.773 32.1023L261.932 26.4205H279.83C283.428 27.4621 290.625 31.875 290.625 41.1932C290.625 50.5114 283.428 54.3561 279.83 55.1137H261.932L266.761 46.875H275.741L277.983 43.1818H273.366C271.564 43.1818 270.553 43.1818 268.75 43.1818L271.591 38.3523H282.955L285.227 34.9432H269.318L255.114 58.8068H279.83C284.28 57.9546 294.602 53.2921 294.602 41.1932C294.602 29.2614 285.227 23.8637 279.83 22.7273H255.114L262.5 35.5114Z" fill="white"/>
<path d="M285.227 34.9432C282.102 34.9432 271.307 34.9432 269.318 34.9432M285.227 34.9432L282.955 38.3523H271.591L268.75 43.1818C270.553 43.1818 271.564 43.1818 273.366 43.1818H277.983L275.741 46.875H266.761L261.932 55.1137H279.83C283.428 54.3561 290.625 50.5114 290.625 41.1932C290.625 31.875 283.428 27.4621 279.83 26.4205H261.932L264.773 32.1023L262.5 35.5114L255.114 22.7273H279.83C285.227 23.8637 294.602 29.2614 294.602 41.1932C294.602 53.2921 284.28 57.9546 279.83 58.8068H255.114L269.318 34.9432M285.227 34.9432H269.318" stroke="white" stroke-width="4"/>
</svg>
