<svg width="551" height="27" viewBox="0 0 551 27" fill="none" xmlns="http://www.w3.org/2000/svg">
<path d="M8 0.5H543C547.142 0.5 550.5 3.85786 550.5 8V19C550.5 23.1421 547.142 26.5 543 26.5H7.99999C3.85785 26.5 0.5 23.1421 0.5 19V8C0.5 3.85786 3.85786 0.5 8 0.5Z" fill="black" stroke="white"/>
<path d="M205.401 19V8.81818H207.553V17.2251H211.918V19H205.401ZM215.482 19.1442C214.994 19.1442 214.56 19.0597 214.179 18.8906C213.798 18.7183 213.496 18.4647 213.274 18.13C213.056 17.7919 212.946 17.371 212.946 16.8672C212.946 16.4429 213.024 16.0866 213.18 15.7983C213.336 15.5099 213.548 15.2779 213.816 15.1023C214.085 14.9266 214.39 14.794 214.731 14.7045C215.076 14.6151 215.437 14.5521 215.815 14.5156C216.259 14.4692 216.617 14.4261 216.889 14.3864C217.16 14.3433 217.358 14.2803 217.48 14.1974C217.603 14.1146 217.664 13.992 217.664 13.8295V13.7997C217.664 13.4848 217.565 13.2412 217.366 13.0689C217.17 12.8965 216.892 12.8104 216.531 12.8104C216.15 12.8104 215.846 12.8949 215.621 13.0639C215.396 13.2296 215.246 13.4384 215.173 13.6903L213.215 13.5312C213.314 13.0672 213.51 12.6662 213.801 12.3281C214.093 11.9867 214.469 11.7249 214.93 11.5426C215.394 11.357 215.931 11.2642 216.541 11.2642C216.965 11.2642 217.371 11.3139 217.759 11.4134C218.15 11.5128 218.496 11.6669 218.798 11.8757C219.103 12.0845 219.343 12.353 219.519 12.6811C219.694 13.0059 219.782 13.3954 219.782 13.8494V19H217.774V17.9411H217.714C217.591 18.1797 217.427 18.3902 217.222 18.5724C217.016 18.7514 216.769 18.8923 216.481 18.995C216.193 19.0945 215.86 19.1442 215.482 19.1442ZM216.088 17.6825C216.4 17.6825 216.675 17.6212 216.914 17.4986C217.152 17.3726 217.339 17.2036 217.475 16.9915C217.611 16.7794 217.679 16.5391 217.679 16.2706V15.4602C217.613 15.5033 217.522 15.5431 217.406 15.5795C217.293 15.6127 217.165 15.6442 217.023 15.674C216.88 15.7005 216.738 15.7254 216.595 15.7486C216.453 15.7685 216.324 15.7867 216.208 15.8033C215.959 15.8397 215.742 15.8977 215.556 15.9773C215.371 16.0568 215.227 16.1645 215.124 16.3004C215.021 16.433 214.97 16.5987 214.97 16.7976C214.97 17.0859 215.074 17.3063 215.283 17.4588C215.495 17.608 215.763 17.6825 216.088 17.6825ZM223.543 14.5852V19H221.425V11.3636H223.444V12.7109H223.533C223.702 12.2668 223.986 11.9155 224.383 11.657C224.781 11.3951 225.263 11.2642 225.83 11.2642C226.36 11.2642 226.823 11.3802 227.217 11.6122C227.612 11.8442 227.918 12.1757 228.137 12.6065C228.356 13.0341 228.465 13.5445 228.465 14.1378V19H226.347V14.5156C226.35 14.0483 226.231 13.6837 225.989 13.4219C225.747 13.1567 225.414 13.0241 224.99 13.0241C224.705 13.0241 224.453 13.0855 224.234 13.2081C224.019 13.3307 223.85 13.5097 223.727 13.745C223.608 13.977 223.546 14.2571 223.543 14.5852ZM233.575 22.0227C232.888 22.0227 232.3 21.9283 231.81 21.7393C231.322 21.5537 230.935 21.3002 230.646 20.9787C230.358 20.6572 230.171 20.2959 230.085 19.8949L232.043 19.6314C232.103 19.7839 232.197 19.9264 232.327 20.0589C232.456 20.1915 232.627 20.2976 232.839 20.3771C233.054 20.46 233.316 20.5014 233.624 20.5014C234.085 20.5014 234.464 20.3887 234.763 20.1634C235.064 19.9413 235.215 19.5684 235.215 19.0447V17.6477H235.126C235.033 17.8598 234.894 18.0604 234.708 18.2493C234.522 18.4382 234.284 18.5923 233.992 18.7116C233.701 18.831 233.353 18.8906 232.948 18.8906C232.375 18.8906 231.853 18.758 231.382 18.4929C230.915 18.2244 230.542 17.8151 230.263 17.2649C229.988 16.7114 229.851 16.0121 229.851 15.1669C229.851 14.3018 229.992 13.5793 230.273 12.9993C230.555 12.4193 230.93 11.9851 231.397 11.6967C231.868 11.4084 232.383 11.2642 232.943 11.2642C233.371 11.2642 233.729 11.3371 234.017 11.483C234.305 11.6255 234.537 11.8045 234.713 12.0199C234.892 12.232 235.03 12.4408 235.126 12.6463H235.205V11.3636H237.308V19.0746C237.308 19.7242 237.149 20.2678 236.831 20.7053C236.513 21.1428 236.072 21.4709 235.509 21.6896C234.948 21.9117 234.304 22.0227 233.575 22.0227ZM233.619 17.2997C233.961 17.2997 234.249 17.2152 234.484 17.0462C234.723 16.8738 234.905 16.6286 235.031 16.3104C235.161 15.9889 235.225 15.6044 235.225 15.157C235.225 14.7095 235.162 14.3217 235.036 13.9936C234.91 13.6622 234.728 13.4053 234.489 13.223C234.251 13.0407 233.961 12.9496 233.619 12.9496C233.271 12.9496 232.978 13.044 232.739 13.233C232.501 13.4186 232.32 13.6771 232.197 14.0085C232.075 14.34 232.013 14.7228 232.013 15.157C232.013 15.5978 232.075 15.9789 232.197 16.3004C232.323 16.6186 232.504 16.8655 232.739 17.0412C232.978 17.2135 233.271 17.2997 233.619 17.2997ZM243.891 15.7486V11.3636H246.009V19H243.975V17.6129H243.896C243.723 18.0604 243.437 18.42 243.036 18.6918C242.638 18.9635 242.152 19.0994 241.579 19.0994C241.068 19.0994 240.619 18.9834 240.232 18.7514C239.844 18.5194 239.54 18.1896 239.322 17.7621C239.106 17.3345 238.997 16.8224 238.994 16.2259V11.3636H241.112V15.848C241.115 16.2988 241.236 16.6551 241.474 16.9169C241.713 17.1787 242.033 17.3097 242.434 17.3097C242.689 17.3097 242.928 17.2517 243.15 17.1357C243.372 17.0163 243.551 16.8407 243.687 16.6087C243.826 16.3767 243.894 16.09 243.891 15.7486ZM249.88 19.1442C249.393 19.1442 248.959 19.0597 248.578 18.8906C248.196 18.7183 247.895 18.4647 247.673 18.13C247.454 17.7919 247.345 17.371 247.345 16.8672C247.345 16.4429 247.423 16.0866 247.578 15.7983C247.734 15.5099 247.946 15.2779 248.215 15.1023C248.483 14.9266 248.788 14.794 249.129 14.7045C249.474 14.6151 249.835 14.5521 250.213 14.5156C250.657 14.4692 251.015 14.4261 251.287 14.3864C251.559 14.3433 251.756 14.2803 251.879 14.1974C252.001 14.1146 252.063 13.992 252.063 13.8295V13.7997C252.063 13.4848 251.963 13.2412 251.764 13.0689C251.569 12.8965 251.29 12.8104 250.929 12.8104C250.548 12.8104 250.245 12.8949 250.019 13.0639C249.794 13.2296 249.645 13.4384 249.572 13.6903L247.613 13.5312C247.713 13.0672 247.908 12.6662 248.2 12.3281C248.491 11.9867 248.868 11.7249 249.328 11.5426C249.792 11.357 250.329 11.2642 250.939 11.2642C251.363 11.2642 251.769 11.3139 252.157 11.4134C252.548 11.5128 252.895 11.6669 253.196 11.8757C253.501 12.0845 253.741 12.353 253.917 12.6811C254.093 13.0059 254.181 13.3954 254.181 13.8494V19H252.172V17.9411H252.112C251.99 18.1797 251.826 18.3902 251.62 18.5724C251.415 18.7514 251.168 18.8923 250.879 18.995C250.591 19.0945 250.258 19.1442 249.88 19.1442ZM250.487 17.6825C250.798 17.6825 251.073 17.6212 251.312 17.4986C251.551 17.3726 251.738 17.2036 251.874 16.9915C252.01 16.7794 252.078 16.5391 252.078 16.2706V15.4602C252.011 15.5033 251.92 15.5431 251.804 15.5795C251.691 15.6127 251.564 15.6442 251.421 15.674C251.279 15.7005 251.136 15.7254 250.994 15.7486C250.851 15.7685 250.722 15.7867 250.606 15.8033C250.357 15.8397 250.14 15.8977 249.955 15.9773C249.769 16.0568 249.625 16.1645 249.522 16.3004C249.419 16.433 249.368 16.5987 249.368 16.7976C249.368 17.0859 249.472 17.3063 249.681 17.4588C249.893 17.608 250.162 17.6825 250.487 17.6825ZM259.264 22.0227C258.578 22.0227 257.99 21.9283 257.499 21.7393C257.012 21.5537 256.624 21.3002 256.336 20.9787C256.047 20.6572 255.86 20.2959 255.774 19.8949L257.733 19.6314C257.792 19.7839 257.887 19.9264 258.016 20.0589C258.145 20.1915 258.316 20.2976 258.528 20.3771C258.744 20.46 259.006 20.5014 259.314 20.5014C259.774 20.5014 260.154 20.3887 260.452 20.1634C260.754 19.9413 260.905 19.5684 260.905 19.0447V17.6477H260.815C260.722 17.8598 260.583 18.0604 260.398 18.2493C260.212 18.4382 259.973 18.5923 259.682 18.7116C259.39 18.831 259.042 18.8906 258.638 18.8906C258.064 18.8906 257.542 18.758 257.072 18.4929C256.604 18.2244 256.231 17.8151 255.953 17.2649C255.678 16.7114 255.54 16.0121 255.54 15.1669C255.54 14.3018 255.681 13.5793 255.963 12.9993C256.245 12.4193 256.619 11.9851 257.086 11.6967C257.557 11.4084 258.073 11.2642 258.633 11.2642C259.06 11.2642 259.418 11.3371 259.706 11.483C259.995 11.6255 260.227 11.8045 260.403 12.0199C260.581 12.232 260.719 12.4408 260.815 12.6463H260.895V11.3636H262.998V19.0746C262.998 19.7242 262.839 20.2678 262.52 20.7053C262.202 21.1428 261.761 21.4709 261.198 21.6896C260.638 21.9117 259.993 22.0227 259.264 22.0227ZM259.309 17.2997C259.65 17.2997 259.939 17.2152 260.174 17.0462C260.412 16.8738 260.595 16.6286 260.721 16.3104C260.85 15.9889 260.915 15.6044 260.915 15.157C260.915 14.7095 260.852 14.3217 260.726 13.9936C260.6 13.6622 260.417 13.4053 260.179 13.223C259.94 13.0407 259.65 12.9496 259.309 12.9496C258.961 12.9496 258.667 13.044 258.429 13.233C258.19 13.4186 258.01 13.6771 257.887 14.0085C257.764 14.34 257.703 14.7228 257.703 15.157C257.703 15.5978 257.764 15.9789 257.887 16.3004C258.013 16.6186 258.193 16.8655 258.429 17.0412C258.667 17.2135 258.961 17.2997 259.309 17.2997ZM268.163 19.1491C267.378 19.1491 266.702 18.9901 266.135 18.6719C265.571 18.3504 265.137 17.8963 264.832 17.3097C264.527 16.7197 264.375 16.022 264.375 15.2166C264.375 14.4311 264.527 13.7417 264.832 13.1484C265.137 12.5552 265.566 12.0928 266.12 11.7614C266.677 11.4299 267.33 11.2642 268.079 11.2642C268.582 11.2642 269.051 11.3454 269.486 11.5078C269.923 11.6669 270.304 11.9072 270.629 12.2287C270.957 12.5502 271.212 12.9545 271.395 13.4418C271.577 13.9257 271.668 14.4924 271.668 15.142V15.7237H265.22V14.4112H269.675C269.675 14.1063 269.608 13.8362 269.476 13.6009C269.343 13.3655 269.159 13.1816 268.924 13.049C268.692 12.9131 268.422 12.8452 268.113 12.8452C267.792 12.8452 267.507 12.9197 267.258 13.0689C267.013 13.2147 266.821 13.4119 266.682 13.6605C266.542 13.9058 266.471 14.1792 266.468 14.4808V15.7287C266.468 16.1065 266.537 16.433 266.677 16.7081C266.819 16.9832 267.02 17.1953 267.278 17.3445C267.537 17.4936 267.843 17.5682 268.198 17.5682C268.433 17.5682 268.649 17.535 268.844 17.4688C269.04 17.4025 269.207 17.303 269.346 17.1705C269.486 17.0379 269.592 16.8755 269.665 16.6832L271.623 16.8125C271.524 17.2831 271.32 17.6941 271.012 18.0455C270.707 18.3935 270.313 18.6652 269.829 18.8608C269.348 19.053 268.793 19.1491 268.163 19.1491ZM279.404 13.5412L277.465 13.6605C277.432 13.4948 277.361 13.3456 277.251 13.2131C277.142 13.0772 276.998 12.9695 276.819 12.8899C276.643 12.8071 276.433 12.7656 276.187 12.7656C275.859 12.7656 275.582 12.8352 275.357 12.9744C275.132 13.1103 275.019 13.2926 275.019 13.5213C275.019 13.7036 275.092 13.8577 275.238 13.9837C275.384 14.1096 275.634 14.2107 275.988 14.2869L277.371 14.5653C278.113 14.7178 278.666 14.9631 279.031 15.3011C279.396 15.6392 279.578 16.0833 279.578 16.6335C279.578 17.134 279.43 17.5732 279.135 17.951C278.844 18.3288 278.443 18.6238 277.932 18.8359C277.425 19.0447 276.84 19.1491 276.177 19.1491C275.166 19.1491 274.361 18.9387 273.761 18.5178C273.165 18.0935 272.815 17.5168 272.712 16.7876L274.795 16.6783C274.858 16.9865 275.011 17.2218 275.253 17.3842C275.495 17.5433 275.805 17.6229 276.182 17.6229C276.554 17.6229 276.852 17.5516 277.077 17.4091C277.306 17.2633 277.422 17.076 277.425 16.8473C277.422 16.6551 277.341 16.4976 277.182 16.375C277.023 16.2491 276.777 16.1529 276.446 16.0866L275.123 15.8232C274.378 15.674 273.823 15.4155 273.458 15.0476C273.097 14.6797 272.916 14.2107 272.916 13.6406C272.916 13.1501 273.049 12.7275 273.314 12.3729C273.582 12.0182 273.958 11.7448 274.442 11.5526C274.93 11.3603 275.5 11.2642 276.153 11.2642C277.117 11.2642 277.876 11.468 278.43 11.8757C278.986 12.2834 279.311 12.8385 279.404 13.5412ZM286.329 19.1442C285.842 19.1442 285.408 19.0597 285.027 18.8906C284.646 18.7183 284.344 18.4647 284.122 18.13C283.903 17.7919 283.794 17.371 283.794 16.8672C283.794 16.4429 283.872 16.0866 284.028 15.7983C284.183 15.5099 284.395 15.2779 284.664 15.1023C284.932 14.9266 285.237 14.794 285.579 14.7045C285.923 14.6151 286.285 14.5521 286.662 14.5156C287.107 14.4692 287.465 14.4261 287.736 14.3864C288.008 14.3433 288.205 14.2803 288.328 14.1974C288.451 14.1146 288.512 13.992 288.512 13.8295V13.7997C288.512 13.4848 288.412 13.2412 288.214 13.0689C288.018 12.8965 287.74 12.8104 287.378 12.8104C286.997 12.8104 286.694 12.8949 286.469 13.0639C286.243 13.2296 286.094 13.4384 286.021 13.6903L284.062 13.5312C284.162 13.0672 284.357 12.6662 284.649 12.3281C284.941 11.9867 285.317 11.7249 285.778 11.5426C286.242 11.357 286.778 11.2642 287.388 11.2642C287.813 11.2642 288.219 11.3139 288.606 11.4134C288.997 11.5128 289.344 11.6669 289.645 11.8757C289.95 12.0845 290.191 12.353 290.366 12.6811C290.542 13.0059 290.63 13.3954 290.63 13.8494V19H288.621V17.9411H288.562C288.439 18.1797 288.275 18.3902 288.069 18.5724C287.864 18.7514 287.617 18.8923 287.329 18.995C287.04 19.0945 286.707 19.1442 286.329 19.1442ZM286.936 17.6825C287.247 17.6825 287.523 17.6212 287.761 17.4986C288 17.3726 288.187 17.2036 288.323 16.9915C288.459 16.7794 288.527 16.5391 288.527 16.2706V15.4602C288.461 15.5033 288.369 15.5431 288.253 15.5795C288.141 15.6127 288.013 15.6442 287.871 15.674C287.728 15.7005 287.586 15.7254 287.443 15.7486C287.3 15.7685 287.171 15.7867 287.055 15.8033C286.807 15.8397 286.59 15.8977 286.404 15.9773C286.218 16.0568 286.074 16.1645 285.971 16.3004C285.869 16.433 285.817 16.5987 285.817 16.7976C285.817 17.0859 285.922 17.3063 286.131 17.4588C286.343 17.608 286.611 17.6825 286.936 17.6825ZM294.391 14.5852V19H292.273V11.3636H294.291V12.7109H294.381C294.55 12.2668 294.833 11.9155 295.231 11.657C295.629 11.3951 296.111 11.2642 296.678 11.2642C297.208 11.2642 297.67 11.3802 298.065 11.6122C298.459 11.8442 298.766 12.1757 298.985 12.6065C299.203 13.0341 299.313 13.5445 299.313 14.1378V19H297.195V14.5156C297.198 14.0483 297.079 13.6837 296.837 13.4219C296.595 13.1567 296.262 13.0241 295.838 13.0241C295.552 13.0241 295.301 13.0855 295.082 13.2081C294.866 13.3307 294.697 13.5097 294.575 13.745C294.455 13.977 294.394 14.2571 294.391 14.5852ZM303.796 19.1243C303.216 19.1243 302.69 18.9751 302.22 18.6768C301.752 18.3752 301.381 17.9328 301.106 17.3494C300.834 16.7628 300.699 16.0436 300.699 15.1918C300.699 14.3168 300.839 13.5893 301.121 13.0092C301.403 12.4259 301.777 11.9901 302.245 11.7017C302.715 11.41 303.231 11.2642 303.791 11.2642C304.218 11.2642 304.575 11.3371 304.86 11.483C305.148 11.6255 305.38 11.8045 305.556 12.0199C305.735 12.232 305.871 12.4408 305.963 12.6463H306.028V8.81818H308.141V19H306.053V17.777H305.963C305.864 17.9891 305.723 18.1996 305.541 18.4084C305.362 18.6139 305.128 18.7846 304.84 18.9205C304.555 19.0563 304.207 19.1243 303.796 19.1243ZM304.467 17.4389C304.808 17.4389 305.097 17.3461 305.332 17.1605C305.571 16.9716 305.753 16.7081 305.879 16.37C306.008 16.032 306.073 15.6359 306.073 15.1818C306.073 14.7277 306.01 14.3333 305.884 13.9986C305.758 13.6638 305.576 13.4053 305.337 13.223C305.098 13.0407 304.808 12.9496 304.467 12.9496C304.119 12.9496 303.826 13.044 303.587 13.233C303.348 13.4219 303.168 13.6837 303.045 14.0185C302.922 14.3532 302.861 14.741 302.861 15.1818C302.861 15.6259 302.922 16.0187 303.045 16.3601C303.171 16.6982 303.352 16.9633 303.587 17.1555C303.826 17.3445 304.119 17.4389 304.467 17.4389ZM317.184 11.3636V12.9545H312.586V11.3636H317.184ZM313.63 9.53409H315.748V16.6534C315.748 16.849 315.777 17.0014 315.837 17.1108C315.897 17.2169 315.98 17.2914 316.086 17.3345C316.195 17.3776 316.321 17.3991 316.463 17.3991C316.563 17.3991 316.662 17.3909 316.762 17.3743C316.861 17.3544 316.937 17.3395 316.99 17.3295L317.324 18.9055C317.217 18.9387 317.068 18.9768 316.876 19.0199C316.684 19.0663 316.45 19.0945 316.175 19.1044C315.665 19.1243 315.217 19.0563 314.833 18.9006C314.452 18.7448 314.155 18.5028 313.943 18.1747C313.731 17.8466 313.626 17.4323 313.63 16.9318V9.53409ZM321.932 19.1491C321.16 19.1491 320.492 18.9851 319.929 18.657C319.368 18.3255 318.936 17.8648 318.631 17.2749C318.326 16.6816 318.174 15.9938 318.174 15.2116C318.174 14.4228 318.326 13.7334 318.631 13.1435C318.936 12.5502 319.368 12.0895 319.929 11.7614C320.492 11.4299 321.16 11.2642 321.932 11.2642C322.704 11.2642 323.371 11.4299 323.931 11.7614C324.494 12.0895 324.928 12.5502 325.233 13.1435C325.538 13.7334 325.691 14.4228 325.691 15.2116C325.691 15.9938 325.538 16.6816 325.233 17.2749C324.928 17.8648 324.494 18.3255 323.931 18.657C323.371 18.9851 322.704 19.1491 321.932 19.1491ZM321.942 17.5085C322.293 17.5085 322.587 17.4091 322.822 17.2102C323.057 17.008 323.235 16.733 323.354 16.3849C323.477 16.0369 323.538 15.6409 323.538 15.1967C323.538 14.7526 323.477 14.3565 323.354 14.0085C323.235 13.6605 323.057 13.3854 322.822 13.1832C322.587 12.9811 322.293 12.88 321.942 12.88C321.587 12.88 321.289 12.9811 321.047 13.1832C320.809 13.3854 320.628 13.6605 320.505 14.0085C320.386 14.3565 320.326 14.7526 320.326 15.1967C320.326 15.6409 320.386 16.0369 320.505 16.3849C320.628 16.733 320.809 17.008 321.047 17.2102C321.289 17.4091 321.587 17.5085 321.942 17.5085ZM330.518 19.1491C329.746 19.1491 329.078 18.9851 328.515 18.657C327.954 18.3255 327.522 17.8648 327.217 17.2749C326.912 16.6816 326.76 15.9938 326.76 15.2116C326.76 14.4228 326.912 13.7334 327.217 13.1435C327.522 12.5502 327.954 12.0895 328.515 11.7614C329.078 11.4299 329.746 11.2642 330.518 11.2642C331.29 11.2642 331.957 11.4299 332.517 11.7614C333.08 12.0895 333.514 12.5502 333.819 13.1435C334.124 13.7334 334.277 14.4228 334.277 15.2116C334.277 15.9938 334.124 16.6816 333.819 17.2749C333.514 17.8648 333.08 18.3255 332.517 18.657C331.957 18.9851 331.29 19.1491 330.518 19.1491ZM330.528 17.5085C330.879 17.5085 331.173 17.4091 331.408 17.2102C331.643 17.008 331.821 16.733 331.94 16.3849C332.063 16.0369 332.124 15.6409 332.124 15.1967C332.124 14.7526 332.063 14.3565 331.94 14.0085C331.821 13.6605 331.643 13.3854 331.408 13.1832C331.173 12.9811 330.879 12.88 330.528 12.88C330.173 12.88 329.875 12.9811 329.633 13.1832C329.395 13.3854 329.214 13.6605 329.091 14.0085C328.972 14.3565 328.912 14.7526 328.912 15.1967C328.912 15.6409 328.972 16.0369 329.091 16.3849C329.214 16.733 329.395 17.008 329.633 17.2102C329.875 17.4091 330.173 17.5085 330.528 17.5085ZM337.772 8.81818V19H335.654V8.81818H337.772ZM345.822 13.5412L343.883 13.6605C343.85 13.4948 343.779 13.3456 343.669 13.2131C343.56 13.0772 343.416 12.9695 343.237 12.8899C343.061 12.8071 342.851 12.7656 342.605 12.7656C342.277 12.7656 342 12.8352 341.775 12.9744C341.55 13.1103 341.437 13.2926 341.437 13.5213C341.437 13.7036 341.51 13.8577 341.656 13.9837C341.802 14.1096 342.052 14.2107 342.406 14.2869L343.789 14.5653C344.531 14.7178 345.084 14.9631 345.449 15.3011C345.814 15.6392 345.996 16.0833 345.996 16.6335C345.996 17.134 345.848 17.5732 345.553 17.951C345.262 18.3288 344.861 18.6238 344.35 18.8359C343.843 19.0447 343.258 19.1491 342.595 19.1491C341.584 19.1491 340.779 18.9387 340.179 18.5178C339.583 18.0935 339.233 17.5168 339.13 16.7876L341.213 16.6783C341.276 16.9865 341.429 17.2218 341.671 17.3842C341.913 17.5433 342.222 17.6229 342.6 17.6229C342.972 17.6229 343.27 17.5516 343.495 17.4091C343.724 17.2633 343.84 17.076 343.843 16.8473C343.84 16.6551 343.759 16.4976 343.6 16.375C343.441 16.2491 343.195 16.1529 342.864 16.0866L341.541 15.8232C340.796 15.674 340.24 15.4155 339.876 15.0476C339.515 14.6797 339.334 14.2107 339.334 13.6406C339.334 13.1501 339.467 12.7275 339.732 12.3729C340 12.0182 340.376 11.7448 340.86 11.5526C341.347 11.3603 341.918 11.2642 342.57 11.2642C343.535 11.2642 344.294 11.468 344.847 11.8757C345.404 12.2834 345.729 12.8385 345.822 13.5412Z" fill="white"/>
</svg>
