<svg width="176" height="145" viewBox="0 0 176 145" fill="none" xmlns="http://www.w3.org/2000/svg">
<path d="M0 0H176V145H0V0Z" fill="black"/>
<path d="M66 62.5L70 56.5L65 46.5H96.5C102.833 48.3333 115.5 56.1 115.5 72.5C115.5 88.9 102.833 95.6667 96.5 97H65L73.5 82.5H89.3036L93.25 76H85.125C81.952 76 80.173 76 77 76L82 67.5H102L106 61.5H78L53 103.5H96.5C104.333 102 122.5 93.7941 122.5 72.5C122.5 51.5 106 42 96.5 40H53L66 62.5Z" fill="white"/>
<path d="M106 61.5C100.5 61.5 81.5 61.5 78 61.5M106 61.5L102 67.5H82L77 76C80.173 76 81.952 76 85.125 76H93.25L89.3036 82.5H73.5L65 97H96.5C102.833 95.6667 115.5 88.9 115.5 72.5C115.5 56.1 102.833 48.3333 96.5 46.5H65L70 56.5L66 62.5L53 40H96.5C106 42 122.5 51.5 122.5 72.5C122.5 93.7941 104.333 102 96.5 103.5H53L78 61.5M106 61.5H78" stroke="white" stroke-width="4"/>
</svg>
