<svg width="16" height="15" viewBox="0 0 16 15" fill="none" xmlns="http://www.w3.org/2000/svg">
<path d="M3.6187 5.6063L4.42446 4.37795L3.41727 2.33071H9.76259C11.0384 2.70604 13.5899 4.29606 13.5899 7.65354C13.5899 11.011 11.0384 12.3963 9.76259 12.6693H3.41727L5.1295 9.70079H8.31295L9.10791 8.37008H7.47122C6.83206 8.37008 6.4737 8.37008 5.83453 8.37008L6.84173 6.62992H10.8705L11.6763 5.40157H6.03597L1 14H9.76259C11.3405 13.6929 15 12.013 15 7.65354C15 3.35433 11.6763 1.40945 9.76259 1H1L3.6187 5.6063Z" fill="white"/>
<path d="M11.6763 5.40157C10.5683 5.40157 6.74101 5.40157 6.03597 5.40157M11.6763 5.40157L10.8705 6.62992H6.84173L5.83453 8.37008C6.4737 8.37008 6.83206 8.37008 7.47122 8.37008H9.10791L8.31295 9.70079H5.1295L3.41727 12.6693H9.76259C11.0384 12.3963 13.5899 11.011 13.5899 7.65354C13.5899 4.29606 11.0384 2.70604 9.76259 2.33071H3.41727L4.42446 4.37795L3.6187 5.6063L1 1H9.76259C11.6763 1.40945 15 3.35433 15 7.65354C15 12.013 11.3405 13.6929 9.76259 14H1L6.03597 5.40157M11.6763 5.40157H6.03597" stroke="white"/>
</svg>
